<svg version="1.1" id="Layer_1" xmlns="http://www.w3.org/2000/svg" xmlns:xlink="http://www.w3.org/1999/xlink" x="0px" y="0px"
	 width="100%" viewBox="0 0 1537 398" enable-background="new 0 0 1537 398" xml:space="preserve">
<path fill="#FFFFFF" opacity="1.000000" stroke="none" 
	d="
M1137.000000,399.000000 
	C758.048889,399.000000 379.597717,399.000000 1.073299,399.000000 
	C1.073299,266.399353 1.073299,133.798676 1.073299,1.098990 
	C513.333313,1.098990 1025.666626,1.098990 1537.973877,1.098990 
	C1537.973877,133.735687 1537.973877,266.367859 1537.973877,399.000000 
	C1404.465210,399.000000 1270.982666,399.000000 1137.000000,399.000000 
M1400.177368,313.991760 
	C1411.246704,313.850403 1422.316040,313.709076 1433.837280,313.163849 
	C1450.474365,280.123260 1467.120117,247.087036 1483.709351,214.022400 
	C1484.245483,212.954086 1484.787231,211.300323 1484.341187,210.416885 
	C1478.822632,199.487228 1473.120850,188.650131 1467.366699,177.428085 
	C1467.366699,177.428085 1467.162964,177.113724 1467.195068,176.342575 
	C1461.650269,165.464218 1456.105591,154.585861 1449.804932,143.210831 
	C1416.856079,143.140457 1383.907104,143.051300 1350.958252,143.071976 
	C1349.706299,143.072769 1347.785522,143.799194 1347.306030,144.754517 
	C1341.944092,155.437378 1336.804443,166.231812 1331.380005,177.158936 
	C1331.380005,177.158936 1331.143799,177.304443 1330.194214,177.200104 
	C1320.701904,177.173355 1311.203613,177.331451 1301.720093,177.028091 
	C1297.971069,176.908157 1296.182007,178.283127 1294.564453,181.556335 
	C1279.085205,212.878525 1263.423584,244.110535 1247.843384,275.382874 
	C1247.117676,276.839386 1246.666016,278.432312 1246.005249,280.692993 
	C1251.609009,291.637695 1257.212769,302.582397 1262.775024,313.597412 
	C1262.775024,313.597412 1262.807617,313.672394 1262.913452,314.436890 
	C1267.829102,324.247772 1272.885498,333.992096 1277.578735,343.908234 
	C1279.073853,347.067200 1280.840576,348.141510 1284.348755,348.124634 
	C1315.340698,347.975250 1346.333496,348.046234 1377.326050,348.014343 
	C1378.948120,348.012665 1380.569946,347.669250 1382.761353,347.038452 
	C1388.266113,336.006744 1393.770874,324.975037 1400.177368,313.991760 
M1023.930725,314.732971 
	C1028.990723,324.960052 1034.006226,335.209778 1039.174316,345.381958 
	C1039.739136,346.493622 1041.179932,347.909576 1042.220581,347.914612 
	C1052.969360,347.966400 1063.719604,347.756958 1074.907715,347.216034 
	C1078.909424,339.378113 1082.454590,331.259674 1087.047119,323.784760 
	C1091.249634,316.944489 1091.341431,311.089111 1087.055664,304.256714 
	C1082.322266,296.710297 1078.561768,288.553467 1073.647461,280.165192 
	C1063.506226,280.099762 1053.364380,279.972534 1043.224243,280.049744 
	C1042.003052,280.058990 1040.156494,280.857605 1039.670654,281.827026 
	C1034.326050,292.490692 1029.194214,303.260925 1023.930725,314.732971 
M1073.553345,75.017067 
	C1063.414917,74.954765 1053.276245,74.846283 1043.138428,74.894958 
	C1042.009277,74.900383 1040.267944,75.493286 1039.851196,76.331306 
	C1034.468872,87.154007 1029.275269,98.070595 1023.945007,109.696175 
	C1029.406494,120.912697 1034.867920,132.129227 1039.384766,143.073547 
	C1030.219238,143.048309 1021.046509,143.226135 1011.891418,142.904175 
	C1007.878418,142.763016 1005.778748,144.006958 1003.946960,147.695023 
	C978.398254,199.133957 952.664673,250.481003 927.000671,301.862701 
	C925.002014,305.864136 923.185852,309.956726 921.264099,314.702057 
	C925.055847,322.283386 929.579224,329.600037 932.443420,337.516937 
	C935.615295,346.283936 940.698425,349.445282 949.855530,348.191101 
	C957.167297,347.189697 964.665222,347.547943 972.690796,346.941101 
	C1000.459045,291.490967 1028.241821,236.048050 1055.921143,180.553619 
	C1056.701172,178.989792 1057.145142,176.503662 1056.450562,175.079407 
	C1051.281250,164.480133 1045.784424,154.040710 1041.167969,143.129227 
	C1047.286987,143.087463 1053.408081,143.127670 1059.524536,142.978439 
	C1064.579346,142.855118 1069.628662,142.507919 1075.209595,141.731659 
	C1077.859619,136.570023 1080.553955,131.430618 1083.147705,126.240860 
	C1086.033569,120.466499 1091.046753,114.642700 1091.037476,108.846939 
	C1091.028198,103.044518 1086.062622,97.197617 1083.082275,91.467529 
	C1080.276367,86.072754 1077.226440,80.804871 1073.553345,75.017067 
M1278.667725,75.035294 
	C1268.519897,74.966606 1258.371704,74.834480 1248.224976,74.912277 
	C1247.004150,74.921638 1245.161865,75.754524 1244.672607,76.736366 
	C1239.350098,87.417679 1234.240112,98.204941 1228.987427,109.692871 
	C1234.342651,120.797043 1239.697754,131.901215 1244.109009,142.999344 
	C1235.122925,142.998825 1226.126587,143.249390 1217.155029,142.888153 
	C1212.894409,142.716599 1210.796509,144.070923 1208.875977,147.938538 
	C1182.187500,201.687057 1155.296997,255.335312 1128.472900,309.016602 
	C1127.665405,310.632599 1127.043945,312.341522 1126.322510,314.698730 
	C1131.284058,324.651154 1136.185913,334.634277 1141.274536,344.521332 
	C1141.999634,345.929932 1143.623413,347.865448 1144.843994,347.874634 
	C1155.612793,347.955872 1166.384644,347.656372 1177.680298,347.163116 
	C1205.427246,291.747620 1233.182983,236.336594 1260.873169,180.892776 
	C1261.623291,179.391006 1262.503784,177.123245 1261.906738,175.909744 
	C1256.561401,165.046326 1250.897705,154.339523 1245.181885,143.247986 
	C1245.181885,143.247986 1244.984253,142.936661 1245.921143,143.022537 
	C1253.326050,143.016327 1260.732544,143.095215 1268.135376,142.969040 
	C1272.000000,142.903168 1275.858398,142.476456 1280.277588,141.724747 
	C1283.670532,135.089111 1286.401489,127.994186 1290.612061,121.925835 
	C1296.889404,112.878662 1296.713257,104.828613 1290.565063,95.852798 
	C1286.215210,89.502274 1283.097290,82.307899 1278.667725,75.035294 
M614.016724,314.001129 
	C625.095154,313.818024 636.173523,313.634918 647.798767,312.998688 
	C670.000916,268.682404 692.211365,224.370300 714.360291,180.027435 
	C714.961182,178.824524 715.547302,176.965134 715.044617,175.959915 
	C709.624512,165.122131 703.984131,154.394455 697.655457,143.170181 
	C688.161499,143.112000 678.661438,143.231903 669.176636,142.907043 
	C665.438232,142.779007 663.699280,144.160889 662.076660,147.436920 
	C640.947205,190.098038 619.650269,232.676208 598.417664,275.286316 
	C597.681580,276.763458 597.176514,278.355682 596.363953,280.056793 
	C596.363953,280.056793 596.136292,280.185516 595.189819,280.053558 
	C584.133972,279.964539 573.078125,279.875549 562.219788,279.144012 
	C578.705688,246.177002 595.206787,213.217575 611.621521,180.215164 
	C612.275513,178.900269 612.783691,176.844360 612.218262,175.695602 
	C606.958435,165.009399 601.448120,154.446442 595.428894,143.238007 
	C585.792786,143.157532 576.151611,143.230637 566.523132,142.915787 
	C563.012207,142.800964 561.296326,144.009552 559.741089,147.151230 
	C543.529602,179.898071 527.118652,212.546021 510.807709,245.243729 
	C505.028351,256.829315 499.371399,268.475952 493.541962,280.210297 
	C493.541962,280.210297 493.376770,280.200989 492.406677,280.021057 
	C481.462769,279.941345 470.518890,279.861603 459.817169,279.104004 
	C476.054901,246.543350 492.315460,213.994003 508.467712,181.391022 
	C509.342896,179.624466 510.263702,176.947021 509.550171,175.476105 
	C504.340485,164.736679 498.717834,154.197601 492.501862,143.133087 
	C483.192963,143.088135 473.876862,143.240891 464.578583,142.903244 
	C460.730408,142.763489 458.756989,143.926666 457.008026,147.460403 
	C438.443817,184.969498 419.660614,222.370163 400.978119,259.820831 
	C397.651428,266.489410 394.509827,273.250366 391.248016,280.670624 
	C396.843109,291.555023 402.438202,302.439453 408.026581,313.602905 
	C408.026581,313.602905 408.176666,313.838226 408.187378,314.554352 
	C413.116943,324.318665 418.189972,334.014648 422.892303,343.887177 
	C424.384979,347.021057 426.097687,348.161346 429.618591,348.127686 
	C449.205536,347.940491 468.795227,348.049469 488.383881,348.016266 
	C490.007050,348.013519 491.629700,347.707153 493.804535,347.068756 
	C499.459290,336.125977 505.114044,325.183167 511.023773,314.996826 
	C515.955139,324.801941 521.019104,334.543945 525.735107,344.451569 
	C527.106506,347.332672 528.766541,348.128662 531.815247,348.107971 
	C551.806335,347.972290 571.798828,348.054199 591.790710,348.003571 
	C593.200317,348.000000 594.608582,347.503937 596.651611,346.876831 
	C602.131409,335.913788 607.611206,324.950745 614.016724,314.001129 
M152.022736,280.689636 
	C157.620026,291.629150 163.217300,302.568665 168.792007,313.654358 
	C168.792007,313.654358 168.901184,313.754120 168.960922,314.524078 
	C173.887146,324.327759 178.982407,334.052124 183.643311,343.980347 
	C185.171173,347.234894 187.041046,348.120178 190.465912,348.111023 
	C232.780182,347.997650 275.094879,348.041809 317.409454,348.019226 
	C319.053284,348.018341 320.696960,347.755341 322.821655,347.227112 
	C323.602570,345.763977 324.416138,344.317200 325.159698,342.835327 
	C346.094574,301.111786 366.926208,259.335785 388.083984,217.725601 
	C390.487122,212.999481 390.483429,209.472687 387.936005,205.007980 
	C382.853516,196.100296 378.279785,186.902313 373.403046,177.443802 
	C373.403046,177.443802 373.187134,177.117081 373.229614,176.343658 
	C367.688049,165.477951 362.146484,154.612228 355.854126,143.228683 
	C322.728790,143.153427 289.603485,143.061966 256.478180,143.074905 
	C255.394531,143.075317 253.750793,143.862305 253.313263,144.748993 
	C248.029037,155.457703 242.923004,166.254333 237.653259,177.787872 
	C243.083984,188.932053 248.514709,200.076233 252.890732,211.275803 
	C243.267670,211.284302 233.641251,211.165054 224.024582,211.417191 
	C222.260712,211.463440 219.660934,212.559998 218.933136,213.949890 
	C213.403625,224.510056 208.243881,235.263855 202.035339,245.927032 
	C191.911545,245.893967 181.787262,245.806839 171.664536,245.895416 
	C170.382233,245.906647 168.397919,246.482788 167.938354,247.398926 
	C162.527130,258.186066 157.344849,269.088074 152.022736,280.689636 
M699.056396,280.684967 
	C704.649780,291.613983 710.243225,302.542969 715.831238,313.662231 
	C715.831238,313.662231 715.958374,313.803864 716.006226,314.560425 
	C720.944397,324.355316 726.058167,334.067688 730.721252,343.991821 
	C732.260559,347.267822 734.158264,348.115936 737.564758,348.107269 
	C779.866028,347.999359 822.167786,348.041412 864.469360,348.018829 
	C866.113098,348.017975 867.756775,347.755493 869.858093,347.228455 
	C892.219971,302.761810 914.589294,258.298950 936.897827,213.805527 
	C937.421387,212.761215 937.798096,211.103271 937.337158,210.187759 
	C931.905090,199.398392 926.299866,188.696182 920.739624,177.552536 
	C920.655273,177.142944 920.570923,176.733353 920.102417,175.629074 
	C919.138794,173.693756 918.202454,171.744278 917.206848,169.825562 
	C912.706909,161.153748 908.190125,152.490662 902.947021,143.257263 
	C869.807556,143.172714 836.668091,143.072037 803.528625,143.075470 
	C802.446838,143.075592 800.804565,143.860855 800.368896,144.745651 
	C795.092834,155.460434 789.994690,166.262863 784.739929,177.795746 
	C790.154236,188.936722 795.568542,200.077698 800.048889,211.260681 
	C790.414978,211.274307 780.777588,211.159531 771.150269,211.418274 
	C769.387939,211.465637 766.799866,212.575714 766.064087,213.971024 
	C760.496643,224.528610 755.296265,235.279739 749.046570,245.924255 
	C738.928589,245.892105 728.809570,245.785568 718.693726,245.916183 
	C717.334595,245.933731 715.287048,246.792664 714.748901,247.861465 
	C709.398804,258.487610 704.299255,269.239929 699.056396,280.684967 
M83.745399,347.016968 
	C121.240646,272.149628 158.504364,197.164383 196.507538,122.555786 
	C201.582001,112.593491 202.836166,104.786522 196.400391,95.479256 
	C192.108765,89.272781 189.068848,82.200752 184.706772,75.050072 
	C175.547653,74.975899 166.378082,75.134697 157.234039,74.724564 
	C152.969254,74.533264 150.840469,75.902725 148.911652,79.780884 
	C114.440536,149.090149 79.784019,218.307190 45.202133,287.561432 
	C40.824463,296.328247 36.642265,305.192657 32.360229,314.701080 
	C37.322933,324.657684 42.243176,334.635956 47.298615,344.545258 
	C47.980114,345.881042 49.336815,347.861145 50.389397,347.866455 
	C61.314777,347.922180 72.241913,347.634064 83.745399,347.016968 
z"/>
<path fill="#FFC33A" opacity="1.000000" stroke="none" 
	d="
M373.187134,177.117081 
	C373.187134,177.117081 373.403046,177.443802 373.305237,178.004883 
	C372.933105,179.169998 372.677429,179.783310 372.381775,180.376709 
	C350.175537,224.950790 327.966095,269.523285 305.307007,314.061768 
	C262.863617,314.018890 220.870148,314.015594 178.876694,313.990692 
	C175.551483,313.988739 172.226349,313.836517 168.901184,313.754120 
	C168.901184,313.754120 168.792007,313.654358 168.973633,313.229980 
	C174.712082,301.908539 180.268906,291.011475 185.890533,280.070679 
	C185.955353,280.026917 186.081024,279.933807 186.543610,279.924866 
	C197.954956,279.849487 208.903717,279.783020 220.320129,279.820435 
	C242.089432,279.940063 263.391174,279.984436 284.692535,279.908630 
	C286.146759,279.903473 288.408936,279.424988 288.925507,278.444733 
	C294.478058,267.908325 299.755005,257.226685 305.509155,245.786011 
	C296.398804,245.786011 288.147522,245.767212 279.896332,245.789474 
	C254.272781,245.858612 228.649277,245.943375 203.011780,246.005676 
	C202.997818,245.989273 202.968918,245.957306 202.968918,245.957306 
	C208.243881,235.263855 213.403625,224.510056 218.933136,213.949890 
	C219.660934,212.559998 222.260712,211.463440 224.024582,211.417191 
	C233.641251,211.165054 243.267670,211.284302 253.725739,211.379303 
	C276.041901,211.529678 297.523529,211.643707 319.003326,211.493332 
	C320.684906,211.481552 323.132996,210.031265 323.902863,208.558502 
	C329.292389,198.248398 334.333923,187.756393 339.619202,177.237564 
	C339.751648,177.152542 340.017700,176.984390 340.484741,177.005661 
	C351.696869,177.056976 362.442017,177.087036 373.187134,177.117081 
z"/>
<path fill="#FEC33A" opacity="1.000000" stroke="none" 
	d="
M749.981323,245.970474 
	C755.296265,235.279739 760.496643,224.528610 766.064087,213.971024 
	C766.799866,212.575714 769.387939,211.465637 771.150269,211.418274 
	C780.777588,211.159531 790.414978,211.274307 800.888794,211.381805 
	C823.212646,211.543106 844.697021,211.650665 866.179504,211.490829 
	C867.830688,211.478531 870.219116,209.973587 870.990662,208.496765 
	C876.377625,198.185455 881.428650,187.698654 886.698364,177.193054 
	C886.809509,177.118073 887.034180,176.971542 887.500000,176.993164 
	C893.092346,177.028137 898.221008,177.141891 903.344604,177.028107 
	C909.061035,176.901169 914.772766,176.567474 920.486572,176.323761 
	C920.570923,176.733353 920.655273,177.142944 920.551392,178.035263 
	C897.837463,223.701889 875.311829,268.885773 852.333496,314.046478 
	C822.561035,314.016144 793.241394,314.029663 763.921692,313.993530 
	C747.933838,313.973816 731.946167,313.869843 715.958374,313.803864 
	C715.958374,313.803864 715.831238,313.662231 716.031738,313.242737 
	C721.788147,301.904846 727.344055,290.986450 732.953491,280.030090 
	C733.007080,279.992157 733.110840,279.911713 733.571167,279.905701 
	C744.987061,279.844543 755.942749,279.789459 767.364563,279.830536 
	C789.135803,279.941528 810.440979,279.984680 831.745667,279.908936 
	C833.199829,279.903748 835.463928,279.435028 835.978333,278.458557 
	C841.528503,267.922699 846.803162,257.241669 852.562317,245.786362 
	C850.077698,245.786362 848.483643,245.786346 846.889648,245.786346 
	C833.573853,245.786346 820.257935,245.756790 806.942200,245.793396 
	C787.972473,245.845551 769.002869,245.946228 750.020142,246.012329 
	C750.007080,245.998489 749.981323,245.970474 749.981323,245.970474 
z"/>
<path fill="#FEC33A" opacity="1.000000" stroke="none" 
	d="
M32.369507,314.011871 
	C36.642265,305.192657 40.824463,296.328247 45.202133,287.561432 
	C79.784019,218.307190 114.440536,149.090149 148.911652,79.780884 
	C150.840469,75.902725 152.969254,74.533264 157.234039,74.724564 
	C166.378082,75.134697 175.547653,74.975899 184.903992,75.658188 
	C145.439240,155.549164 105.777260,234.832016 65.639999,314.067505 
	C54.232986,314.017365 43.301247,314.014618 32.369507,314.011871 
z"/>
<path fill="#0291BD" opacity="1.000000" stroke="none" 
	d="
M66.115265,314.114868 
	C105.777260,234.832016 145.439240,155.549164 185.284973,75.891205 
	C189.068848,82.200752 192.108765,89.272781 196.400391,95.479256 
	C202.836166,104.786522 201.582001,112.593491 196.507538,122.555786 
	C158.504364,197.164383 121.240646,272.149628 83.279373,346.884735 
	C77.247314,335.873291 71.681290,324.994080 66.115265,314.114868 
z"/>
<path fill="#FEC33A" opacity="1.000000" stroke="none" 
	d="
M562.022278,279.786560 
	C573.078125,279.875549 584.133972,279.964539 595.665100,280.279419 
	C596.140381,280.505310 596.199707,280.820831 595.936096,281.070618 
	C590.095154,292.227692 584.517883,303.135010 578.475952,314.025452 
	C555.613708,314.077698 533.216064,314.146820 510.752136,314.015045 
	C510.685760,313.814178 510.610107,313.395905 510.854218,313.088135 
	C516.505981,302.054291 521.913574,291.328186 527.481506,280.284119 
	C515.712891,280.284119 504.793243,280.284119 493.809967,280.247986 
	C493.746338,280.211823 493.658569,280.094696 493.658569,280.094696 
	C499.371399,268.475952 505.028351,256.829315 510.807709,245.243729 
	C527.118652,212.546021 543.529602,179.898071 559.741089,147.151230 
	C561.296326,144.009552 563.012207,142.800964 566.523132,142.915787 
	C576.151611,143.230637 585.792786,143.157532 595.519348,143.843872 
	C573.070312,189.456238 550.530823,234.462708 527.832336,279.786560 
	C539.760193,279.786560 550.891235,279.786560 562.022278,279.786560 
z"/>
<path fill="#0491BD" opacity="1.000000" stroke="none" 
	d="
M1245.327759,143.586624 
	C1250.897705,154.339523 1256.561401,165.046326 1261.906738,175.909744 
	C1262.503784,177.123245 1261.623291,179.391006 1260.873169,180.892776 
	C1233.182983,236.336594 1205.427246,291.747620 1177.267212,347.028473 
	C1171.254883,335.958618 1165.655640,325.023407 1160.229248,313.780334 
	C1188.710571,256.843872 1217.019165,200.215256 1245.327759,143.586624 
z"/>
<path fill="#0391BD" opacity="1.000000" stroke="none" 
	d="
M1040.390259,143.551117 
	C1045.784424,154.040710 1051.281250,164.480133 1056.450562,175.079407 
	C1057.145142,176.503662 1056.701172,178.989792 1055.921143,180.553619 
	C1028.241821,236.048050 1000.459045,291.490967 972.161682,346.833984 
	C966.085632,335.838684 960.538757,324.950500 955.156860,313.749146 
	C955.494202,313.153137 955.688110,312.881165 955.835754,312.585999 
	C984.035400,256.223389 1012.231689,199.859070 1040.435059,143.527283 
	C1040.441895,143.559723 1040.390259,143.551117 1040.390259,143.551117 
z"/>
<path fill="#FFC339" opacity="1.000000" stroke="none" 
	d="
M1040.428101,143.494843 
	C1012.231689,199.859070 984.035400,256.223389 955.835754,312.585999 
	C955.688110,312.881165 955.494202,313.153137 954.689941,313.722656 
	C943.133606,314.008514 932.209290,314.007721 921.284912,314.006958 
	C923.185852,309.956726 925.002014,305.864136 927.000671,301.862701 
	C952.664673,250.481003 978.398254,199.133957 1003.946960,147.695023 
	C1005.778748,144.006958 1007.878418,142.763016 1011.891418,142.904175 
	C1021.046509,143.226135 1030.219238,143.048309 1039.895020,143.234100 
	C1040.405396,143.394669 1040.428101,143.494843 1040.428101,143.494843 
z"/>
<path fill="#FFC339" opacity="1.000000" stroke="none" 
	d="
M1245.254883,143.417297 
	C1217.019165,200.215256 1188.710571,256.843872 1159.757812,313.743225 
	C1148.187622,314.011658 1137.261719,314.009399 1126.335693,314.007141 
	C1127.043945,312.341522 1127.665405,310.632599 1128.472900,309.016602 
	C1155.296997,255.335312 1182.187500,201.687057 1208.875977,147.938538 
	C1210.796509,144.070923 1212.894409,142.716599 1217.155029,142.888153 
	C1226.126587,143.249390 1235.122925,142.998825 1244.548218,143.000732 
	C1244.987427,143.002136 1244.984253,142.936661 1244.984253,142.936661 
	C1244.984253,142.936661 1245.181885,143.247986 1245.254883,143.417297 
z"/>
<path fill="#0391BD" opacity="1.000000" stroke="none" 
	d="
M852.786194,314.069672 
	C875.311829,268.885773 897.837463,223.701889 920.551697,178.244507 
	C926.299866,188.696182 931.905090,199.398392 937.337158,210.187759 
	C937.798096,211.103271 937.421387,212.761215 936.897827,213.805527 
	C914.589294,258.298950 892.219971,302.761810 869.479004,347.108917 
	C863.661987,336.016144 858.224060,325.042908 852.786194,314.069672 
z"/>
<path fill="#FEC33A" opacity="1.000000" stroke="none" 
	d="
M596.563782,279.894287 
	C597.176514,278.355682 597.681580,276.763458 598.417664,275.286316 
	C619.650269,232.676208 640.947205,190.098038 662.076660,147.436920 
	C663.699280,144.160889 665.438232,142.779007 669.176636,142.907043 
	C678.661438,143.231903 688.161499,143.112000 697.856018,143.769684 
	C688.523438,163.504929 678.971252,182.631256 669.461792,201.778717 
	C656.495178,227.887146 643.560913,254.011673 630.176514,280.061127 
	C618.681396,279.960052 607.622620,279.927185 596.563782,279.894287 
z"/>
<path fill="#0391BD" opacity="1.000000" stroke="none" 
	d="
M305.756927,314.095917 
	C327.966095,269.523285 350.175537,224.950790 372.381775,180.376709 
	C372.677429,179.783310 372.933105,179.169998 373.351685,178.195099 
	C378.279785,186.902313 382.853516,196.100296 387.936005,205.007980 
	C390.483429,209.472687 390.487122,212.999481 388.083984,217.725601 
	C366.926208,259.335785 346.094574,301.111786 325.159698,342.835327 
	C324.416138,344.317200 323.602570,345.763977 322.442200,347.105164 
	C316.627472,336.020752 311.192200,325.058350 305.756927,314.095917 
z"/>
<path fill="#8C079E" opacity="1.000000" stroke="none" 
	d="
M305.307007,314.061768 
	C311.192200,325.058350 316.627472,336.020752 322.201721,347.298828 
	C320.696960,347.755341 319.053284,348.018341 317.409454,348.019226 
	C275.094879,348.041809 232.780182,347.997650 190.465912,348.111023 
	C187.041046,348.120178 185.171173,347.234894 183.643311,343.980347 
	C178.982407,334.052124 173.887146,324.327759 168.931061,314.139099 
	C172.226349,313.836517 175.551483,313.988739 178.876694,313.990692 
	C220.870148,314.015594 262.863617,314.018890 305.307007,314.061768 
z"/>
<path fill="#FFC339" opacity="1.000000" stroke="none" 
	d="
M391.282806,279.968658 
	C394.509827,273.250366 397.651428,266.489410 400.978119,259.820831 
	C419.660614,222.370163 438.443817,184.969498 457.008026,147.460403 
	C458.756989,143.926666 460.730408,142.763489 464.578583,142.903244 
	C473.876862,143.240891 483.192963,143.088135 492.717651,143.726913 
	C470.378296,189.431015 447.823151,234.541290 425.193481,279.750183 
	C425.118958,279.848755 424.956268,280.033386 424.491028,280.019440 
	C413.111450,279.993225 402.197113,279.980957 391.282806,279.968658 
z"/>
<path fill="#0291BD" opacity="1.000000" stroke="none" 
	d="
M630.612793,280.129272 
	C643.560913,254.011673 656.495178,227.887146 669.461792,201.778717 
	C678.971252,182.631256 688.523438,163.504929 698.230286,144.002930 
	C703.984131,154.394455 709.624512,165.122131 715.044617,175.959915 
	C715.547302,176.965134 714.961182,178.824524 714.360291,180.027435 
	C692.211365,224.370300 670.000916,268.682404 647.352783,312.874878 
	C641.475464,301.877136 636.044067,291.003204 630.612793,280.129272 
z"/>
<path fill="#8C069E" opacity="1.000000" stroke="none" 
	d="
M852.333496,314.046478 
	C858.224060,325.042908 863.661987,336.016144 869.250183,347.302124 
	C867.756775,347.755493 866.113098,348.017975 864.469360,348.018829 
	C822.167786,348.041412 779.866028,347.999359 737.564758,348.107269 
	C734.158264,348.115936 732.260559,347.267822 730.721252,343.991821 
	C726.058167,334.067688 720.944397,324.355316 715.982300,314.182129 
	C731.946167,313.869843 747.933838,313.973816 763.921692,313.993530 
	C793.241394,314.029663 822.561035,314.016144 852.333496,314.046478 
z"/>
<path fill="#0391BD" opacity="1.000000" stroke="none" 
	d="
M425.268036,279.651581 
	C447.823151,234.541290 470.378296,189.431015 493.079468,143.958008 
	C498.717834,154.197601 504.340485,164.736679 509.550171,175.476105 
	C510.263702,176.947021 509.342896,179.624466 508.467712,181.391022 
	C492.315460,213.994003 476.054901,246.543350 459.262390,279.496582 
	C447.561066,279.809998 436.414551,279.730774 425.268036,279.651581 
z"/>
<path fill="#0291BD" opacity="1.000000" stroke="none" 
	d="
M562.121033,279.465271 
	C550.891235,279.786560 539.760193,279.786560 527.832336,279.786560 
	C550.530823,234.462708 573.070312,189.456238 595.810120,144.148758 
	C601.448120,154.446442 606.958435,165.009399 612.218262,175.695602 
	C612.783691,176.844360 612.275513,178.900269 611.621521,180.215164 
	C595.206787,213.217575 578.705688,246.177002 562.121033,279.465271 
z"/>
<path fill="#FEC33B" opacity="1.000000" stroke="none" 
	d="
M1246.086670,279.961731 
	C1246.666016,278.432312 1247.117676,276.839386 1247.843384,275.382874 
	C1263.423584,244.110535 1279.085205,212.878525 1294.564453,181.556335 
	C1296.182007,178.283127 1297.971069,176.908157 1301.720093,177.028091 
	C1311.203613,177.331451 1320.701904,177.173355 1330.686768,177.445312 
	C1331.179321,177.690521 1331.258179,178.072311 1330.993896,178.314362 
	C1313.844604,212.350815 1296.959595,246.145233 1280.003174,279.992249 
	C1279.932007,280.044861 1279.783325,280.141388 1279.336182,280.106628 
	C1267.954956,280.035156 1257.020874,279.998444 1246.086670,279.961731 
z"/>
<path fill="#FEC33A" opacity="1.000000" stroke="none" 
	d="
M1467.162964,177.113724 
	C1467.162964,177.113724 1467.366699,177.428085 1467.273682,177.981079 
	C1466.909790,179.138107 1466.659424,179.752441 1466.364868,180.344727 
	C1449.829346,213.582504 1433.290039,246.818420 1416.301270,280.021881 
	C1404.795654,280.092255 1393.739868,280.195282 1382.652344,280.247894 
	C1382.620605,280.197449 1382.589600,280.082367 1382.683960,279.703918 
	C1383.677612,277.370544 1384.528564,275.391632 1385.483887,273.464386 
	C1395.714111,252.827347 1405.960693,232.198410 1416.442261,211.297501 
	C1419.744751,204.960983 1422.899048,198.938049 1425.843140,192.814087 
	C1428.337646,187.625946 1430.589233,182.321030 1433.207275,177.038055 
	C1433.639038,176.990936 1433.811890,176.973541 1434.454346,176.989716 
	C1445.670288,177.053421 1456.416626,177.083572 1467.162964,177.113724 
z"/>
<path fill="#0391BD" opacity="1.000000" stroke="none" 
	d="
M1416.751221,280.054504 
	C1433.290039,246.818420 1449.829346,213.582504 1466.364868,180.344727 
	C1466.659424,179.752441 1466.909790,179.138107 1467.323486,178.161621 
	C1473.120850,188.650131 1478.822632,199.487228 1484.341187,210.416885 
	C1484.787231,211.300323 1484.245483,212.954086 1483.709351,214.022400 
	C1467.120117,247.087036 1450.474365,280.123260 1433.458252,313.058472 
	C1427.636597,301.986938 1422.193970,291.020721 1416.751221,280.054504 
z"/>
<path fill="#8C079E" opacity="1.000000" stroke="none" 
	d="
M1382.191895,347.484924 
	C1380.569946,347.669250 1378.948120,348.012665 1377.326050,348.014343 
	C1346.333496,348.046234 1315.340698,347.975250 1284.348755,348.124634 
	C1280.840576,348.141510 1279.073853,347.067200 1277.578735,343.908234 
	C1272.885498,333.992096 1267.829102,324.247772 1263.335449,314.190918 
	C1267.250854,313.963287 1270.744263,313.992676 1274.237549,313.998291 
	C1304.680298,314.047028 1335.122925,314.091522 1365.705566,314.470367 
	C1371.294312,325.697296 1376.743164,336.591095 1382.191895,347.484924 
z"/>
<path fill="#FFC339" opacity="1.000000" stroke="none" 
	d="
M1433.984619,176.956116 
	C1433.811890,176.973541 1433.639038,176.990936 1432.740479,177.057251 
	C1398.544678,177.069519 1365.074829,177.032852 1331.604858,176.996201 
	C1336.804443,166.231812 1341.944092,155.437378 1347.306030,144.754517 
	C1347.785522,143.799194 1349.706299,143.072769 1350.958252,143.071976 
	C1383.907104,143.051300 1416.856079,143.140457 1449.968750,143.804230 
	C1444.749878,155.250458 1439.367188,166.103287 1433.984619,176.956116 
z"/>
<path fill="#FFC338" opacity="1.000000" stroke="none" 
	d="
M784.850281,177.042480 
	C789.994690,166.262863 795.092834,155.460434 800.368896,144.745651 
	C800.804565,143.860855 802.446838,143.075592 803.528625,143.075470 
	C836.668091,143.072037 869.807556,143.172714 903.070557,143.861176 
	C897.807495,155.300568 892.420837,166.136063 887.034180,176.971558 
	C887.034180,176.971542 886.809509,177.118073 886.274170,177.153961 
	C852.109253,177.140732 818.479797,177.091614 784.850281,177.042480 
z"/>
<path fill="#FFC339" opacity="1.000000" stroke="none" 
	d="
M237.770569,177.028076 
	C242.923004,166.254333 248.029037,155.457703 253.313263,144.748993 
	C253.750793,143.862305 255.394531,143.075317 256.478180,143.074905 
	C289.603485,143.061966 322.728790,143.153427 356.003479,143.822784 
	C350.774445,155.272736 345.396088,166.128571 340.017700,176.984406 
	C340.017700,176.984390 339.751648,177.152542 339.208374,177.171890 
	C305.033569,177.136841 271.402069,177.082458 237.770569,177.028076 
z"/>
<path fill="#FFC339" opacity="1.000000" stroke="none" 
	d="
M1365.565674,314.137268 
	C1335.122925,314.091522 1304.680298,314.047028 1274.237549,313.998291 
	C1270.744263,313.992676 1267.250854,313.963287 1263.282593,313.808655 
	C1262.807617,313.672394 1262.775024,313.597412 1262.955322,313.200928 
	C1268.684814,301.916748 1274.234009,291.029083 1279.783325,280.141388 
	C1279.783325,280.141388 1279.932007,280.044861 1280.466309,279.982544 
	C1292.032349,279.877594 1303.063965,279.834961 1314.552734,279.855988 
	C1337.469482,280.003662 1359.929443,280.087677 1382.247559,280.504395 
	C1376.592529,291.937134 1371.079102,303.037201 1365.565674,314.137268 
z"/>
<path fill="#8F0B9E" opacity="1.000000" stroke="none" 
	d="
M237.711914,177.407974 
	C271.402069,177.082458 305.033569,177.136841 339.075928,177.256912 
	C334.333923,187.756393 329.292389,198.248398 323.902863,208.558502 
	C323.132996,210.031265 320.684906,211.481552 319.003326,211.493332 
	C297.523529,211.643707 276.041901,211.529678 254.253082,211.351593 
	C248.514709,200.076233 243.083984,188.932053 237.711914,177.407974 
z"/>
<path fill="#8F0B9E" opacity="1.000000" stroke="none" 
	d="
M784.795105,177.419128 
	C818.479797,177.091614 852.109253,177.140732 886.162964,177.228943 
	C881.428650,187.698654 876.377625,198.185455 870.990662,208.496765 
	C870.219116,209.973587 867.830688,211.478531 866.179504,211.490829 
	C844.697021,211.650665 823.212646,211.543106 801.355774,211.360809 
	C795.568542,200.077698 790.154236,188.936722 784.795105,177.419128 
z"/>
<path fill="#8D099F" opacity="1.000000" stroke="none" 
	d="
M1331.492432,177.077576 
	C1365.074829,177.032852 1398.544678,177.069519 1432.481445,177.086975 
	C1430.589233,182.321030 1428.337646,187.625946 1425.843140,192.814087 
	C1422.899048,198.938049 1419.744751,204.960983 1415.956299,211.233490 
	C1392.862793,211.426529 1370.494751,211.413834 1347.904175,211.106812 
	C1342.207153,199.899078 1336.732666,188.985687 1331.258179,178.072311 
	C1331.258179,178.072311 1331.179321,177.690521 1331.161621,177.497482 
	C1331.143799,177.304443 1331.380005,177.158936 1331.492432,177.077576 
z"/>
<path fill="#8C079E" opacity="1.000000" stroke="none" 
	d="
M510.818481,314.215912 
	C533.216064,314.146820 555.613708,314.077698 578.635132,314.336060 
	C584.845154,325.521362 590.431335,336.379120 596.017578,347.236877 
	C594.608582,347.503937 593.200317,348.000000 591.790710,348.003571 
	C571.798828,348.054199 551.806335,347.972290 531.815247,348.107971 
	C528.766541,348.128662 527.106506,347.332672 525.735107,344.451569 
	C521.019104,334.543945 515.955139,324.801941 510.916931,314.628021 
	C510.810089,314.259216 510.818481,314.215912 510.818481,314.215912 
z"/>
<path fill="#8C079E" opacity="1.000000" stroke="none" 
	d="
M493.252594,347.541840 
	C491.629700,347.707153 490.007050,348.013519 488.383881,348.016266 
	C468.795227,348.049469 449.205536,347.940491 429.618591,348.127686 
	C426.097687,348.161346 424.384979,347.021057 422.892303,343.887177 
	C418.189972,334.014648 413.116943,324.318665 408.633362,314.260315 
	C431.601746,314.024506 454.124176,314.082703 476.781067,314.473633 
	C482.361206,325.718201 487.806885,336.630005 493.252594,347.541840 
z"/>
<path fill="#FFC339" opacity="1.000000" stroke="none" 
	d="
M476.646606,314.140900 
	C454.124176,314.082703 431.601746,314.024506 408.627991,313.902283 
	C408.176666,313.838226 408.026581,313.602905 408.271637,313.196411 
	C413.996552,301.871063 419.476410,290.952209 424.956268,280.033386 
	C424.956268,280.033386 425.118958,279.848755 425.193481,279.750183 
	C436.414551,279.730774 447.561066,279.809998 459.141296,279.835510 
	C470.518890,279.861603 481.462769,279.941345 492.762695,280.444214 
	C487.627991,291.958527 482.137299,303.049713 476.646606,314.140900 
z"/>
<path fill="#0390BD" opacity="1.000000" stroke="none" 
	d="
M1074.377441,280.662537 
	C1078.561768,288.553467 1082.322266,296.710297 1087.055664,304.256714 
	C1091.341431,311.089111 1091.249634,316.944489 1087.047119,323.784760 
	C1082.454590,331.259674 1078.909424,339.378113 1074.527710,347.107422 
	C1068.678467,336.035858 1063.209106,325.072906 1057.858154,313.756165 
	C1063.443481,302.489136 1068.910400,291.575836 1074.377441,280.662537 
z"/>
<path fill="#8C099F" opacity="1.000000" stroke="none" 
	d="
M1040.435059,143.527283 
	C1040.428101,143.494843 1040.405396,143.394669 1040.367432,143.370209 
	C1034.867920,132.129227 1029.406494,120.912697 1024.455200,109.330536 
	C1035.914673,108.977890 1046.863770,108.990891 1057.958496,109.328270 
	C1063.629395,120.521736 1069.154907,131.390823 1074.680420,142.259918 
	C1069.628662,142.507919 1064.579346,142.855118 1059.524536,142.978439 
	C1053.408081,143.127670 1047.286987,143.087463 1040.779053,143.340179 
	C1040.390259,143.551117 1040.441895,143.559723 1040.435059,143.527283 
z"/>
<path fill="#FEC33B" opacity="1.000000" stroke="none" 
	d="
M699.128906,279.956604 
	C704.299255,269.239929 709.398804,258.487610 714.748901,247.861465 
	C715.287048,246.792664 717.334595,245.933731 718.693726,245.916183 
	C728.809570,245.785568 738.928589,245.892105 749.513916,245.947357 
	C749.981323,245.970474 750.007080,245.998489 750.022339,246.179626 
	C750.037659,246.360748 750.069275,246.693848 749.741882,246.872528 
	C743.979980,258.004700 738.545410,268.958221 733.110840,279.911713 
	C733.110840,279.911713 733.007080,279.992157 732.493958,280.021912 
	C721.030212,280.019958 710.079529,279.988281 699.128906,279.956604 
z"/>
<path fill="#FEC33B" opacity="1.000000" stroke="none" 
	d="
M152.102264,279.959808 
	C157.344849,269.088074 162.527130,258.186066 167.938354,247.398926 
	C168.397919,246.482788 170.382233,245.906647 171.664536,245.895416 
	C181.787262,245.806839 191.911545,245.893967 202.502136,245.942169 
	C202.968918,245.957306 202.997818,245.989273 202.993347,246.163971 
	C202.988861,246.338669 203.010620,246.656647 202.685150,246.838699 
	C196.933472,257.991760 191.507248,268.962799 186.081024,279.933807 
	C186.081024,279.933807 185.955353,280.026917 185.439819,280.046631 
	C173.983612,280.030823 163.042938,279.995331 152.102264,279.959808 
z"/>
<path fill="#8C099F" opacity="1.000000" stroke="none" 
	d="
M1245.020264,143.003754 
	C1239.697754,131.901215 1234.342651,120.797043 1229.492676,109.329292 
	C1240.947510,108.977089 1251.896851,108.988464 1262.995728,109.321045 
	C1268.669922,120.499069 1274.194824,131.355881 1279.719727,142.212723 
	C1275.858398,142.476456 1272.000000,142.903168 1268.135376,142.969040 
	C1260.732544,143.095215 1253.326050,143.016327 1245.452637,142.979599 
	C1244.984253,142.936661 1244.987427,143.002136 1245.020264,143.003754 
z"/>
<path fill="#8C089F" opacity="1.000000" stroke="none" 
	d="
M630.176514,280.061096 
	C636.044067,291.003204 641.475464,301.877136 647.079407,313.101440 
	C636.173523,313.634918 625.095154,313.818024 613.397461,313.678955 
	C607.252014,302.511475 601.725891,291.666168 596.199707,280.820831 
	C596.199707,280.820831 596.140381,280.505310 596.138306,280.345398 
	C596.136292,280.185516 596.363953,280.056793 596.463867,279.975525 
	C607.622620,279.927185 618.681396,279.960052 630.176514,280.061096 
z"/>
<path fill="#FEC33B" opacity="1.000000" stroke="none" 
	d="
M1262.846313,108.999847 
	C1251.896851,108.988464 1240.947510,108.977089 1229.535156,108.964531 
	C1234.240112,98.204941 1239.350098,87.417679 1244.672607,76.736366 
	C1245.161865,75.754524 1247.004150,74.921638 1248.224976,74.912277 
	C1258.371704,74.834480 1268.519897,74.966606 1278.873535,75.641579 
	C1273.668213,87.165192 1268.257324,98.082520 1262.846313,108.999847 
z"/>
<path fill="#0491BE" opacity="1.000000" stroke="none" 
	d="
M1074.945068,141.995789 
	C1069.154907,131.390823 1063.629395,120.521736 1058.078613,108.988708 
	C1063.463623,97.376907 1068.873779,86.429047 1074.283936,75.481171 
	C1077.226440,80.804871 1080.276367,86.072754 1083.082275,91.467529 
	C1086.062622,97.197617 1091.028198,103.044518 1091.037476,108.846939 
	C1091.046753,114.642700 1086.033569,120.466499 1083.147705,126.240860 
	C1080.553955,131.430618 1077.859619,136.570023 1074.945068,141.995789 
z"/>
<path fill="#8C089F" opacity="1.000000" stroke="none" 
	d="
M65.639999,314.067505 
	C71.681290,324.994080 77.247314,335.873291 82.990952,347.096985 
	C72.241913,347.634064 61.314777,347.922180 50.389397,347.866455 
	C49.336815,347.861145 47.980114,345.881042 47.298615,344.545258 
	C42.243176,334.635956 37.322933,324.657684 32.364868,314.356476 
	C43.301247,314.014618 54.232986,314.017365 65.639999,314.067505 
z"/>
<path fill="#FEC33A" opacity="1.000000" stroke="none" 
	d="
M1074.012451,280.413879 
	C1068.910400,291.575836 1063.443481,302.489136 1057.410645,313.715210 
	C1045.898071,314.019409 1034.951294,314.010834 1024.004639,314.002197 
	C1029.194214,303.260925 1034.326050,292.490692 1039.670654,281.827026 
	C1040.156494,280.857605 1042.003052,280.058990 1043.224243,280.049744 
	C1053.364380,279.972534 1063.506226,280.099762 1074.012451,280.413879 
z"/>
<path fill="#FEC33A" opacity="1.000000" stroke="none" 
	d="
M1073.918701,75.249123 
	C1068.873779,86.429047 1063.463623,97.376907 1057.933228,108.664337 
	C1046.863770,108.990891 1035.914673,108.977890 1024.499756,108.964188 
	C1029.275269,98.070595 1034.468872,87.154007 1039.851196,76.331306 
	C1040.267944,75.493286 1042.009277,74.900383 1043.138428,74.894958 
	C1053.276245,74.846283 1063.414917,74.954765 1073.918701,75.249123 
z"/>
<path fill="#8C089F" opacity="1.000000" stroke="none" 
	d="
M1126.329102,314.352936 
	C1137.261719,314.009399 1148.187622,314.011658 1159.584961,314.051056 
	C1165.655640,325.023407 1171.254883,335.958618 1177.004883,347.181641 
	C1166.384644,347.656372 1155.612793,347.955872 1144.843994,347.874634 
	C1143.623413,347.865448 1141.999634,345.929932 1141.274536,344.521332 
	C1136.185913,334.634277 1131.284058,324.651154 1126.329102,314.352936 
z"/>
<path fill="#0490BD" opacity="1.000000" stroke="none" 
	d="
M476.781067,314.473633 
	C482.137299,303.049713 487.627991,291.958527 493.247742,280.534180 
	C493.376770,280.200989 493.541962,280.210297 493.600281,280.152496 
	C493.658569,280.094696 493.746338,280.211823 493.847015,280.594391 
	C499.501831,291.783295 505.055969,302.589600 510.610107,313.395905 
	C510.610107,313.395905 510.685760,313.814178 510.752136,314.015045 
	C510.818481,314.215912 510.810089,314.259216 510.789429,314.249786 
	C505.114044,325.183167 499.459290,336.125977 493.528564,347.305298 
	C487.806885,336.630005 482.361206,325.718201 476.781067,314.473633 
z"/>
<path fill="#0391BE" opacity="1.000000" stroke="none" 
	d="
M1262.995728,109.321045 
	C1268.257324,98.082520 1273.668213,87.165192 1279.254272,75.869049 
	C1283.097290,82.307899 1286.215210,89.502274 1290.565063,95.852798 
	C1296.713257,104.828613 1296.889404,112.878662 1290.612061,121.925835 
	C1286.401489,127.994186 1283.670532,135.089111 1279.998657,141.968719 
	C1274.194824,131.355881 1268.669922,120.499069 1262.995728,109.321045 
z"/>
<path fill="#8C089F" opacity="1.000000" stroke="none" 
	d="
M1416.301270,280.021851 
	C1422.193970,291.020721 1427.636597,301.986938 1433.232300,313.260437 
	C1422.316040,313.709076 1411.246704,313.850403 1399.598633,313.628662 
	C1393.574585,302.276489 1388.129272,291.287415 1382.684082,280.298340 
	C1393.739868,280.195282 1404.795654,280.092255 1416.301270,280.021851 
z"/>
<path fill="#0490BD" opacity="1.000000" stroke="none" 
	d="
M595.936096,281.070618 
	C601.725891,291.666168 607.252014,302.511475 612.934570,313.672241 
	C607.611206,324.950745 602.131409,335.913788 596.334595,347.056854 
	C590.431335,336.379120 584.845154,325.521362 579.099792,314.352966 
	C584.517883,303.135010 590.095154,292.227692 595.936096,281.070618 
z"/>
<path fill="#8C089F" opacity="1.000000" stroke="none" 
	d="
M1023.967651,314.367615 
	C1034.951294,314.010834 1045.898071,314.019409 1057.292236,314.068970 
	C1063.209106,325.072906 1068.678467,336.035858 1074.308594,347.309509 
	C1063.719604,347.756958 1052.969360,347.966400 1042.220581,347.914612 
	C1041.179932,347.909576 1039.739136,346.493622 1039.174316,345.381958 
	C1034.006226,335.209778 1028.990723,324.960052 1023.967651,314.367615 
z"/>
<path fill="#8C079E" opacity="1.000000" stroke="none" 
	d="
M921.274536,314.354492 
	C932.209290,314.007721 943.133606,314.008514 954.524902,314.035797 
	C960.538757,324.950500 966.085632,335.838684 971.856567,347.014771 
	C964.665222,347.547943 957.167297,347.189697 949.855530,348.191101 
	C940.698425,349.445282 935.615295,346.283936 932.443420,337.516937 
	C929.579224,329.600037 925.055847,322.283386 921.274536,314.354492 
z"/>
<path fill="#0490BD" opacity="1.000000" stroke="none" 
	d="
M1382.652344,280.247925 
	C1388.129272,291.287415 1393.574585,302.276489 1399.147705,313.604431 
	C1393.770874,324.975037 1388.266113,336.006744 1382.476562,347.261688 
	C1376.743164,336.591095 1371.294312,325.697296 1365.705566,314.470337 
	C1371.079102,303.037201 1376.592529,291.937134 1382.311279,280.512238 
	C1382.516602,280.187408 1382.589600,280.082367 1382.589600,280.082367 
	C1382.589600,280.082367 1382.620605,280.197449 1382.652344,280.247925 
z"/>
<path fill="#8F0B9F" opacity="1.000000" stroke="none" 
	d="
M699.092651,280.320801 
	C710.079529,279.988281 721.030212,280.019958 732.440430,280.059845 
	C727.344055,290.986450 721.788147,301.904846 716.034424,313.147583 
	C710.243225,302.542969 704.649780,291.613983 699.092651,280.320801 
z"/>
<path fill="#8E0A9F" opacity="1.000000" stroke="none" 
	d="
M152.062500,280.324707 
	C163.042938,279.995331 173.983612,280.030823 185.375000,280.090393 
	C180.268906,291.011475 174.712082,301.908539 168.984924,313.156860 
	C163.217300,302.568665 157.620026,291.629150 152.062500,280.324707 
z"/>
<path fill="#8E0A9F" opacity="1.000000" stroke="none" 
	d="
M1279.336182,280.106628 
	C1274.234009,291.029083 1268.684814,301.916748 1262.976074,313.165771 
	C1257.212769,302.582397 1251.609009,291.637695 1246.045898,280.327393 
	C1257.020874,279.998444 1267.954956,280.035156 1279.336182,280.106628 
z"/>
<path fill="#8D099F" opacity="1.000000" stroke="none" 
	d="
M424.491028,280.019440 
	C419.476410,290.952209 413.996552,301.871063 408.274994,313.056885 
	C402.438202,302.439453 396.843109,291.555023 391.265411,280.319641 
	C402.197113,279.980957 413.111450,279.993225 424.491028,280.019440 
z"/>
<path fill="#0592BE" opacity="1.000000" stroke="none" 
	d="
M887.500000,176.993164 
	C892.420837,166.136063 897.807495,155.300568 903.436768,144.144775 
	C908.190125,152.490662 912.706909,161.153748 917.206848,169.825562 
	C918.202454,171.744278 919.138794,173.693756 920.294495,175.976410 
	C914.772766,176.567474 909.061035,176.901169 903.344604,177.028107 
	C898.221008,177.141891 893.092346,177.028137 887.500000,176.993164 
z"/>
<path fill="#0291BD" opacity="1.000000" stroke="none" 
	d="
M1434.454224,176.989685 
	C1439.367188,166.103287 1444.749878,155.250458 1450.346680,144.052582 
	C1456.105591,154.585861 1461.650269,165.464218 1467.178955,176.728149 
	C1456.416626,177.083572 1445.670288,177.053421 1434.454224,176.989685 
z"/>
<path fill="#0491BE" opacity="1.000000" stroke="none" 
	d="
M340.484741,177.005676 
	C345.396088,166.128571 350.774445,155.272736 356.378845,144.081711 
	C362.146484,154.612228 367.688049,165.477951 373.208374,176.730377 
	C362.442017,177.087036 351.696869,177.056976 340.484741,177.005676 
z"/>
<path fill="#8C079E" opacity="1.000000" stroke="none" 
	d="
M203.010620,246.656647 
	C203.010620,246.656647 202.988861,246.338669 203.007294,246.180359 
	C228.649277,245.943375 254.272781,245.858612 279.896332,245.789474 
	C288.147522,245.767212 296.398804,245.786011 305.509155,245.786011 
	C299.755005,257.226685 294.478058,267.908325 288.925507,278.444733 
	C288.408936,279.424988 286.146759,279.903473 284.692535,279.908630 
	C263.391174,279.984436 242.089432,279.940063 220.168335,279.529724 
	C214.036133,268.308960 208.523376,257.482788 203.010620,246.656647 
z"/>
<path fill="#0591BD" opacity="1.000000" stroke="none" 
	d="
M202.685150,246.838699 
	C208.523376,257.482788 214.036133,268.308960 219.700684,279.425842 
	C208.903717,279.783020 197.954956,279.849487 186.543610,279.924866 
	C191.507248,268.962799 196.933472,257.991760 202.685150,246.838699 
z"/>
<path fill="#8C079E" opacity="1.000000" stroke="none" 
	d="
M750.069275,246.693848 
	C750.069275,246.693848 750.037659,246.360748 750.035400,246.193451 
	C769.002869,245.946228 787.972473,245.845551 806.942200,245.793396 
	C820.257935,245.756790 833.573853,245.786346 846.889648,245.786346 
	C848.483643,245.786346 850.077698,245.786362 852.562317,245.786362 
	C846.803162,257.241669 841.528503,267.922699 835.978333,278.458557 
	C835.463928,279.435028 833.199829,279.903748 831.745667,279.908936 
	C810.440979,279.984680 789.135803,279.941528 767.220581,279.532654 
	C761.096680,268.323669 755.582947,257.508759 750.069275,246.693848 
z"/>
<path fill="#0591BD" opacity="1.000000" stroke="none" 
	d="
M749.741882,246.872528 
	C755.582947,257.508759 761.096680,268.323669 766.754395,279.436462 
	C755.942749,279.789459 744.987061,279.844543 733.571167,279.905701 
	C738.545410,268.958221 743.979980,258.004700 749.741882,246.872528 
z"/>
<path fill="#8D099F" opacity="1.000000" stroke="none" 
	d="
M510.854187,313.088135 
	C505.055969,302.589600 499.501831,291.783295 493.910645,280.630554 
	C504.793243,280.284119 515.712891,280.284119 527.481506,280.284119 
	C521.913574,291.328186 516.505981,302.054291 510.854187,313.088135 
z"/>
<path fill="#0291BD" opacity="1.000000" stroke="none" 
	d="
M1330.993896,178.314362 
	C1336.732666,188.985687 1342.207153,199.899078 1347.784912,211.416351 
	C1336.624023,234.610931 1325.359863,257.201630 1314.095703,279.792297 
	C1303.063965,279.834961 1292.032349,279.877594 1280.537598,279.929932 
	C1296.959595,246.145233 1313.844604,212.350815 1330.993896,178.314362 
z"/>
<path fill="#FEFDFE" opacity="1.000000" stroke="none" 
	d="
M1314.552734,279.855957 
	C1325.359863,257.201630 1336.624023,234.610931 1348.007568,211.710693 
	C1370.494751,211.413834 1392.862793,211.426529 1415.716797,211.503265 
	C1405.960693,232.198410 1395.714111,252.827347 1385.483887,273.464386 
	C1384.528564,275.391632 1383.677612,277.370544 1382.683960,279.703918 
	C1382.589600,280.082367 1382.516602,280.187408 1382.452881,280.179565 
	C1359.929443,280.087677 1337.469482,280.003662 1314.552734,279.855957 
z"/>
</svg>