<svg width="408" height="78" viewBox="0 0 408 78" fill="none" xmlns="http://www.w3.org/2000/svg">
<path d="M379.172 58.4375L388.781 39.2188H369.562L360 58.4375H379.172ZM350.391 77.5625L340.781 58.4375L355.172 29.6094H364.781L369.562 20H398.391L408 39.2188L393.562 68H384L379.172 77.5625H350.391Z" fill="white"/>
<path d="M312 77.5625L307.219 68L331.219 20H340.781L345.609 29.6094L321.609 77.5625H312ZM340.781 20L336 10.4375L340.781 0.828125H350.391L355.219 10.4375L350.391 20H340.781Z" fill="white"/>
<path d="M283.219 77.5625L278.438 68L283.219 58.4375H292.828L297.609 68L292.828 77.5625H283.219Z" fill="white"/>
<path d="M254.438 77.5625L249.656 68L273.656 20H283.219L288.047 29.6094L264.047 77.5625H254.438ZM283.219 20L278.438 10.4375L283.219 0.828125H292.828L297.656 10.4375L292.828 20H283.219Z" fill="white"/>
<path d="M196.828 77.5625L187.219 58.4375L192 48.8281H201.609L206.438 39.2188H216L211.219 29.6094L216 20H244.828L254.438 39.2188L235.219 77.5625H196.828Z" fill="white"/>
<path d="M110.391 77.5625L100.781 58.4375L120 20H129.562L134.391 29.6094L120 58.4375H129.562L148.781 20H158.391L163.172 29.6094L148.781 58.4375H158.391L177.562 20H187.172L192 29.6094L172.781 68H163.172L158.391 77.5625H139.172L134.391 68L129.562 77.5625H110.391Z" fill="white"/>
<path d="M43.1719 77.5625L33.5625 58.4375L38.3438 48.8281H47.9531L52.7812 39.2188H62.3438L57.5625 29.6094L62.3438 20H91.1719L100.781 39.2188L81.5625 77.5625H43.1719Z" fill="white"/>
<path d="M4.78125 77.5625L0 68L33.5625 0.828125H43.1719L48 10.4375L14.3906 77.5625H4.78125Z" fill="white"/>
</svg>
